<?xml version="1.0" encoding="UTF-8" standalone="no"?>
<svg xmlns:ffdec="https://www.free-decompiler.com/flash" xmlns:xlink="http://www.w3.org/1999/xlink" ffdec:objectType="shape" height="253.0px" width="183.0px" xmlns="http://www.w3.org/2000/svg">
  <g transform="matrix(1.0, 0.0, 0.0, 1.0, 1.5, 1.5)">
    <path d="M180.0 250.0 L0.0 250.0 0.0 0.0 180.0 0.0 180.0 250.0" fill="#666666" fill-rule="evenodd" stroke="none"/>
    <path d="M180.0 250.0 L0.0 250.0 0.0 0.0" fill="none" stroke="#333333" stroke-linecap="round" stroke-linejoin="round" stroke-width="3.0"/>
    <path d="M0.0 0.0 L180.0 0.0 180.0 250.0" fill="none" stroke="#999999" stroke-linecap="round" stroke-linejoin="round" stroke-width="3.0"/>
    <path d="M50.0 5.0 L50.0 45.0 10.0 45.0 10.0 5.0 50.0 5.0" fill="#999999" fill-rule="evenodd" stroke="none"/>
    <path d="M50.0 5.0 L50.0 45.0 10.0 45.0 10.0 5.0 50.0 5.0 Z" fill="none" stroke="#333333" stroke-linecap="round" stroke-linejoin="round" stroke-width="3.0"/>
    <path d="M50.0 45.0 L50.0 85.0 10.0 85.0 10.0 45.0 50.0 45.0" fill="#999999" fill-rule="evenodd" stroke="none"/>
    <path d="M50.0 45.0 L50.0 85.0 10.0 85.0 10.0 45.0 50.0 45.0 Z" fill="none" stroke="#333333" stroke-linecap="round" stroke-linejoin="round" stroke-width="3.0"/>
    <path d="M50.0 85.0 L50.0 125.0 10.0 125.0 10.0 85.0 50.0 85.0" fill="#999999" fill-rule="evenodd" stroke="none"/>
    <path d="M50.0 85.0 L50.0 125.0 10.0 125.0 10.0 85.0 50.0 85.0 Z" fill="none" stroke="#333333" stroke-linecap="round" stroke-linejoin="round" stroke-width="3.0"/>
    <path d="M50.0 125.0 L50.0 165.0 10.0 165.0 10.0 125.0 50.0 125.0" fill="#999999" fill-rule="evenodd" stroke="none"/>
    <path d="M50.0 125.0 L50.0 165.0 10.0 165.0 10.0 125.0 50.0 125.0 Z" fill="none" stroke="#333333" stroke-linecap="round" stroke-linejoin="round" stroke-width="3.0"/>
    <path d="M50.0 165.0 L50.0 205.0 10.0 205.0 10.0 165.0 50.0 165.0" fill="#999999" fill-rule="evenodd" stroke="none"/>
    <path d="M50.0 165.0 L50.0 205.0 10.0 205.0 10.0 165.0 50.0 165.0 Z" fill="none" stroke="#333333" stroke-linecap="round" stroke-linejoin="round" stroke-width="3.0"/>
    <path d="M50.0 205.0 L50.0 245.0 10.0 245.0 10.0 205.0 50.0 205.0" fill="#999999" fill-rule="evenodd" stroke="none"/>
    <path d="M50.0 205.0 L50.0 245.0 10.0 245.0 10.0 205.0 50.0 205.0 Z" fill="none" stroke="#333333" stroke-linecap="round" stroke-linejoin="round" stroke-width="3.0"/>
  </g>
</svg>
