<?xml version="1.0" encoding="UTF-8" standalone="no"?>
<svg xmlns:ffdec="https://www.free-decompiler.com/flash" xmlns:xlink="http://www.w3.org/1999/xlink" ffdec:objectType="shape" height="112.75px" width="236.0px" xmlns="http://www.w3.org/2000/svg">
  <g transform="matrix(1.0, 0.0, 0.0, 1.0, 1.0, 12.9)">
    <path d="M0.0 -0.7 Q0.0 -11.9 10.0 -11.9 L224.0 -11.9 Q234.0 -11.9 234.0 -0.7 L234.0 87.7 Q234.0 98.85 224.0 98.85 L10.0 98.85 Q0.0 98.85 0.0 87.7 L0.0 -0.7" fill="#ffcc99" fill-rule="evenodd" stroke="none"/>
    <path d="M0.0 -0.7 L0.0 87.7 Q0.0 98.85 10.0 98.85 L224.0 98.85 Q234.0 98.85 234.0 87.7 L234.0 -0.7 Q234.0 -11.9 224.0 -11.9 L10.0 -11.9 Q0.0 -11.9 0.0 -0.7 Z" fill="none" stroke="#ff9900" stroke-linecap="round" stroke-linejoin="round" stroke-width="2.0"/>
  </g>
</svg>
